<?xml version="1.0" encoding="UTF-8" standalone="no"?>
<svg
   xmlns:dc="http://purl.org/dc/elements/1.1/"
   xmlns:cc="http://creativecommons.org/ns#"
   xmlns:rdf="http://www.w3.org/1999/02/22-rdf-syntax-ns#"
   xmlns:svg="http://www.w3.org/2000/svg"
   xmlns="http://www.w3.org/2000/svg"
   xmlns:xlink="http://www.w3.org/1999/xlink"
   xmlns:sodipodi="http://sodipodi.sourceforge.net/DTD/sodipodi-0.dtd"
   xmlns:inkscape="http://www.inkscape.org/namespaces/inkscape"
   version="1"
   width="48"
   height="48"
   id="svg22"
   sodipodi:docname="atom.svg"
   inkscape:version="0.92.2 2405546, 2018-03-11">
  <metadata
     id="metadata26">
    <rdf:RDF>
      <cc:Work
         rdf:about="">
        <dc:format>image/svg+xml</dc:format>
        <dc:type
           rdf:resource="http://purl.org/dc/dcmitype/StillImage" />
      </cc:Work>
    </rdf:RDF>
  </metadata>
  <sodipodi:namedview
     pagecolor="#ffffff"
     bordercolor="#666666"
     borderopacity="1"
     objecttolerance="10"
     gridtolerance="10"
     guidetolerance="10"
     inkscape:pageopacity="0"
     inkscape:pageshadow="2"
     inkscape:window-width="3086"
     inkscape:window-height="1683"
     id="namedview24"
     showgrid="false"
     inkscape:zoom="14.92"
     inkscape:cx="24"
     inkscape:cy="18.411964"
     inkscape:window-x="0"
     inkscape:window-y="56"
     inkscape:window-maximized="1"
     inkscape:current-layer="svg22" />
  <defs
     id="defs8">
    <linearGradient
       id="linearGradient4167">
      <stop
         style="stop-color:#7cb342;stop-opacity:1"
         offset="0"
         id="stop2" />
      <stop
         style="stop-color:#99c868;stop-opacity:1"
         offset="1"
         id="stop4" />
    </linearGradient>
    <linearGradient
       xlink:href="#linearGradient4167"
       id="linearGradient4161"
       x1="-44"
       y1="-24"
       x2="-4"
       y2="-24"
       gradientUnits="userSpaceOnUse" />
  </defs>
  <rect
     style="fill:url(#linearGradient4161);fill-opacity:1.0"
     ry="20"
     rx="20"
     transform="matrix(0,-1,-1,0,0,0)"
     height="40"
     width="40"
     y="-44"
     x="-44"
     id="rect10" />
  <path
     d="M 4.0117,23.5 C 4.0076,23.667 4,23.832 4,24 4,35.08 12.92,44 24,44 35.08,44 44,35.08 44,24 44,23.832 43.992,23.667 43.988,23.5 43.724,34.346 34.912,43 24,43 13.088,43 4.276,34.346 4.012,23.5 Z"
     style="opacity:0.15"
     id="path12" />
  <g
     transform="matrix(1.0416667,0,0,1.0416667,-0.7000004,-1.3001679)"
     id="g822">
    <path
       inkscape:connector-curvature="0"
       id="path4"
       d="m 24,36.1 c -6.6,0 -12,-5.4 -12,-12 0,-3.6 1.6,-7 4.4,-9.3 l 2.5,3.1 c -1.8,1.5 -2.9,3.8 -2.9,6.2 0,4.4 3.6,8 8,8 4.4,0 8,-3.6 8,-8 0,-2.1 -0.8,-4 -2.2,-5.5 l 2.9,-2.7 c 2.1,2.1 3.3,5.1 3.3,8.2 0,6.6 -5.4,12 -12,12 z"
       style="fill:#dcedc8" />
    <polygon
       id="polygon6"
       points="21,22 12,13 21,13 "
       style="fill:#dcedc8" />
  </g>
</svg>
